<svg xmlns="http://www.w3.org/2000/svg" width="53.208" height="18.19" viewBox="0 0 53.208 18.19">
  <g id="bc-bandcamp-logo-svgrepo-com" opacity="0.736">
    <path id="Pfad_12" data-name="Pfad 12" d="M0,310.56H21.424l8.333-18.19H8.333Z" transform="translate(0 -292.37)" fill="#fff"/>
    <g id="Gruppe_6" data-name="Gruppe 6" transform="translate(29.757 0)">
      <path id="Pfad_13" data-name="Pfad 13" d="M749.424,296.79a4.335,4.335,0,0,0-3.679,1.991h-.049v-6.417h-2.144v17.653h2.023v-1.6h.048a3.8,3.8,0,0,0,3.509,1.966c4.338,0,5.6-4.105,5.6-7.178C754.735,299.594,752.811,296.79,749.424,296.79Zm-.342,11.728c-1.364,0-3.484-.91-3.484-4.327,0-2.09.34-5.458,3.436-5.458,3.314,0,3.484,3.172,3.484,4.819C752.518,306.378,751.421,308.518,749.082,308.518Z" transform="translate(-743.551 -292.365)" fill="#fff"/>
      <path id="Pfad_14" data-name="Pfad 14" d="M1063.185,403.894a2.838,2.838,0,0,1,3.022,2.729h2.071c-.17-2.217-1.437-4.654-4.776-4.654-4.215,0-6.115,3.144-6.115,7.091,0,3.68,2.12,6.384,5.7,6.384,3.728,0,4.971-2.851,5.19-4.873h-2.071c-.366,1.949-1.608,3.022-3.045,3.022-2.948,0-3.485-2.705-3.485-4.9C1059.677,406.428,1060.53,403.894,1063.185,403.894Z" transform="translate(-1044.827 -397.422)" fill="#fff"/>
    </g>
  </g>
</svg>
