<svg xmlns="http://www.w3.org/2000/svg" width="32.045" height="30.962" viewBox="0 0 32.045 30.962">
  <path id="spotify-svgrepo-com" d="M20.022,4A15.756,15.756,0,0,0,4,19.481,15.756,15.756,0,0,0,20.022,34.962,15.756,15.756,0,0,0,36.045,19.481,15.756,15.756,0,0,0,20.022,4Zm0,2.58a13.079,13.079,0,0,1,13.352,12.9,13.079,13.079,0,0,1-13.352,12.9A13.079,13.079,0,0,1,6.67,19.481,13.079,13.079,0,0,1,20.022,6.58Zm-2.128,6.128a23.661,23.661,0,0,0-7.01.887,1.231,1.231,0,0,0-1.043,1.29,1.256,1.256,0,0,0,1.377,1.33c.339,0,.569-.121.793-.121a25.443,25.443,0,0,1,5.883-.645,23.106,23.106,0,0,1,10.723,2.379c.339.111.454.242.793.242a1.464,1.464,0,0,0,1.46-1.33,1.351,1.351,0,0,0-.793-1.29A26.254,26.254,0,0,0,17.894,12.708Zm-.376,4.8a21.428,21.428,0,0,0-5.758.766,1.176,1.176,0,0,0-.876,1.209,1.108,1.108,0,0,0,1.127,1.089,1.7,1.7,0,0,0,.668-.121,19.62,19.62,0,0,1,4.757-.524,18.342,18.342,0,0,1,9.346,2.3,1.659,1.659,0,0,0,.793.2A1.143,1.143,0,0,0,28.7,21.214a1.175,1.175,0,0,0-.668-1.089A20.766,20.766,0,0,0,17.519,17.505Zm.376,4.717a23.3,23.3,0,0,0-5.549.645.95.95,0,0,0-.793.968.9.9,0,0,0,.918.887c.115,0,.443-.121.668-.121a21.5,21.5,0,0,1,4.631-.524,15.442,15.442,0,0,1,7.552,1.854,1.74,1.74,0,0,0,.709.2,1.06,1.06,0,0,0,1-.766,1,1,0,0,0-.584-.968A17.107,17.107,0,0,0,17.894,22.222Z" transform="translate(-4 -4)" fill="#fff" opacity="0.736"/>
</svg>
