<svg xmlns="http://www.w3.org/2000/svg" width="31.111" height="31.111" viewBox="0 0 31.111 31.111">
  <g id="instagram-svgrepo-com" opacity="0.736">
    <path id="Pfad_15" data-name="Pfad 15" d="M14.318,7a7.318,7.318,0,1,0,7.318,7.318A7.318,7.318,0,0,0,14.318,7ZM9.927,14.318a4.391,4.391,0,1,0,4.391-4.391A4.391,4.391,0,0,0,9.927,14.318Z" transform="translate(1.238 1.238)" fill="#fff" fill-rule="evenodd"/>
    <path id="Pfad_16" data-name="Pfad 16" d="M18.464,5a1.464,1.464,0,1,0,1.464,1.464A1.464,1.464,0,0,0,18.464,5Z" transform="translate(5.547 0.637)" fill="#fff"/>
    <path id="Pfad_17" data-name="Pfad 17" d="M6.657,1A5.657,5.657,0,0,0,1,6.657v19.8a5.657,5.657,0,0,0,5.657,5.657h19.8a5.657,5.657,0,0,0,5.657-5.657V6.657A5.657,5.657,0,0,0,26.455,1Zm19.8,2.828H6.657A2.828,2.828,0,0,0,3.828,6.657v19.8a2.828,2.828,0,0,0,2.828,2.828h19.8a2.828,2.828,0,0,0,2.828-2.828V6.657A2.828,2.828,0,0,0,26.455,3.828Z" transform="translate(-1 -1)" fill="#fff" fill-rule="evenodd"/>
  </g>
</svg>
