<?xml version="1.0" standalone="no"?>
<!DOCTYPE svg PUBLIC "-//W3C//DTD SVG 20010904//EN"
 "http://www.w3.org/TR/2001/REC-SVG-20010904/DTD/svg10.dtd">
<svg version="1.0" xmlns="http://www.w3.org/2000/svg"
 width="2387.000000pt" height="1558.000000pt" viewBox="0 0 2387.000000 1558.000000"
 preserveAspectRatio="xMidYMid meet">
<metadata>
Created by potrace 1.16, written by Peter Selinger 2001-2019
</metadata>
<g transform="translate(0.000000,1558.000000) scale(0.100000,-0.100000)"
fill="#fff" stroke="none">
<path d="M1400 14853 c-128 -4 -146 -7 -161 -34 -6 -12 -14 -67 -18 -122 -5
-67 -14 -116 -27 -142 -18 -37 -19 -61 -17 -315 4 -413 -16 -1880 -28 -2080
-24 -414 -16 -4012 10 -4335 6 -66 15 -435 21 -820 9 -625 27 -1143 61 -1835
11 -240 8 -492 -18 -1185 -8 -241 -17 -770 -19 -1241 -2 -565 -8 -902 -18
-1080 -9 -142 -21 -379 -27 -525 l-12 -267 26 -46 c22 -39 24 -51 15 -76 -13
-38 -4 -76 21 -90 29 -15 688 -25 724 -11 15 6 37 26 48 46 11 19 37 44 57 56
61 36 69 54 98 211 l28 148 285 0 c302 0 546 16 976 65 428 49 822 121 1502
275 766 174 1029 247 1454 401 301 109 435 166 709 305 257 130 416 225 453
269 21 26 36 35 59 35 22 0 43 11 74 39 23 22 71 54 106 72 143 72 475 327
556 427 50 62 70 81 200 196 81 72 115 108 119 129 3 16 22 42 45 60 21 18 86
89 144 159 58 70 197 230 310 355 172 193 209 229 236 233 30 4 33 9 36 42 5
55 86 133 155 147 29 6 32 11 32 42 0 46 11 59 111 124 50 33 101 78 129 112
26 31 71 75 100 97 29 23 78 70 109 106 30 36 69 74 86 85 17 11 42 37 57 58
14 20 51 51 82 69 31 17 117 71 192 119 230 149 340 201 531 249 225 58 410
72 625 46 78 -10 181 -16 230 -15 84 2 95 0 263 -59 96 -33 220 -74 275 -92
55 -17 142 -52 194 -76 177 -83 267 -153 707 -549 392 -353 480 -425 1049
-860 215 -164 433 -336 485 -381 52 -46 136 -120 185 -164 50 -44 135 -112
190 -152 55 -39 125 -92 155 -118 30 -26 129 -100 220 -165 91 -65 203 -148
250 -184 47 -36 152 -111 235 -166 82 -56 233 -157 335 -227 337 -228 418
-272 1030 -558 186 -86 227 -101 434 -157 94 -25 236 -63 316 -84 259 -70 511
-117 920 -174 195 -28 253 -27 324 1 14 5 17 4 12 -4 -4 -7 -17 -12 -29 -12
-14 0 -18 -3 -11 -10 6 -6 102 -14 215 -20 1127 -54 1246 -57 1404 -30 113 20
319 39 429 40 42 0 47 2 36 15 -15 18 -20 15 115 54 l100 28 3 -280 2 -279 35
6 c31 6 35 4 41 -19 3 -14 8 -25 10 -25 2 0 20 11 40 25 52 35 98 33 131 -5
24 -29 27 -30 112 -30 128 0 293 19 397 45 117 30 237 85 260 119 19 30 17 89
-11 371 -20 203 -19 338 6 540 23 195 29 485 50 2403 13 1200 10 1420 -26
1897 -12 158 -14 288 -9 615 3 228 8 647 9 930 2 362 8 592 20 775 16 229 18
448 20 1860 1 880 7 2070 14 2645 9 766 9 1088 1 1205 -9 136 -9 171 4 233 24
111 21 179 -11 248 -26 57 -26 59 -10 104 l17 45 -28 23 c-94 79 -171 98 -266
66 -45 -16 -54 -15 -135 2 -120 25 -174 23 -242 -9 -68 -33 -96 -33 -178 -6
-73 25 -103 18 -123 -28 -7 -16 -27 -45 -46 -67 -19 -21 -46 -64 -60 -94 -24
-54 -25 -58 -13 -133 7 -42 10 -86 7 -97 -9 -27 -64 -38 -286 -57 -96 -8 -305
-32 -465 -54 -159 -22 -378 -47 -485 -56 -254 -20 -1135 -111 -1270 -131 -265
-38 -565 -105 -828 -185 -192 -58 -1015 -339 -1222 -416 -486 -181 -999 -431
-1300 -633 -281 -188 -615 -470 -985 -830 -217 -211 -637 -600 -939 -869 -121
-108 -288 -259 -371 -335 -335 -310 -514 -441 -770 -566 -294 -144 -573 -197
-887 -171 -380 32 -601 135 -1093 512 -404 308 -598 481 -803 714 -59 66 -150
167 -203 225 -53 58 -156 176 -229 263 -164 196 -984 1033 -1135 1157 -373
310 -870 648 -1263 859 -491 264 -1106 478 -1612 561 -144 23 -684 84 -910
102 -212 17 -1014 17 -1245 0 -486 -35 -1052 -97 -1273 -138 -46 -9 -85 -14
-87 -12 -2 2 1 72 7 155 13 174 7 212 -41 257 -21 20 -43 30 -77 34 -36 4 -53
12 -74 35 -27 30 -30 31 -146 38 -66 4 -144 7 -174 6 -30 -1 -102 -3 -160 -4z
m3430 -728 c711 -54 920 -89 1330 -220 315 -102 718 -280 995 -442 189 -110
543 -330 620 -386 159 -114 645 -534 905 -783 160 -152 282 -280 500 -524 367
-410 570 -631 730 -791 91 -91 206 -209 255 -260 50 -52 155 -144 233 -204 79
-61 185 -142 235 -180 144 -111 702 -445 842 -505 97 -41 331 -69 641 -77 244
-6 349 8 552 72 409 129 529 205 1107 701 121 104 288 254 370 334 83 80 222
206 310 280 176 149 268 234 520 480 146 142 358 341 601 562 406 368 842 616
1614 916 426 165 905 346 1011 382 156 52 457 136 605 169 342 74 981 168
1244 182 102 5 313 23 470 39 397 42 873 80 1076 87 l172 6 -5 -979 c-2 -538
-13 -3362 -23 -6274 -10 -2912 -22 -5303 -25 -5312 -5 -12 -18 -18 -37 -18
-27 0 -30 -3 -26 -25 5 -21 2 -25 -21 -25 -24 0 -24 1 -8 17 16 16 15 18 -9
28 -26 10 -25 11 35 39 34 17 61 33 61 38 0 4 -22 8 -50 8 -49 0 -66 12 -34
24 42 16 -6 15 -157 -3 -397 -49 -847 -59 -1209 -28 -107 9 -303 21 -435 27
-402 17 -638 40 -938 90 -443 75 -605 115 -1017 252 -416 138 -489 165 -573
217 -37 23 -132 73 -210 112 -78 39 -200 109 -272 156 -71 46 -191 124 -265
172 -74 48 -187 129 -250 180 -63 50 -137 105 -165 120 -27 16 -99 70 -160
121 -183 154 -396 309 -474 346 -58 28 -93 55 -160 123 -92 93 -314 296 -464
425 -106 90 -221 172 -390 277 -128 79 -160 109 -151 143 7 28 -39 56 -79 49
-25 -5 -36 2 -85 52 -70 72 -151 134 -195 149 -21 7 -53 35 -85 72 -27 33 -70
76 -94 94 -23 19 -72 61 -108 95 -36 34 -130 110 -209 169 -147 111 -301 242
-336 286 -35 45 -77 80 -168 142 -59 41 -129 103 -209 189 -107 113 -130 132
-204 169 -76 38 -95 43 -236 61 -192 24 -589 43 -773 36 -90 -3 -186 -14 -270
-30 -71 -15 -186 -36 -255 -48 -339 -58 -624 -190 -915 -424 -92 -73 -328
-285 -715 -639 -194 -178 -217 -196 -242 -191 -24 6 -28 4 -28 -17 0 -13 4
-40 9 -60 9 -37 8 -37 -122 -180 -185 -203 -309 -346 -412 -473 -181 -222
-384 -415 -720 -684 -286 -229 -511 -371 -834 -528 -118 -58 -264 -134 -324
-169 -128 -76 -186 -100 -492 -204 -126 -43 -302 -105 -390 -138 -88 -33 -199
-68 -245 -77 -47 -9 -123 -25 -170 -35 -47 -10 -112 -21 -145 -25 -33 -4 -84
-17 -114 -31 -32 -14 -72 -24 -101 -24 -26 0 -67 -7 -90 -15 -24 -8 -93 -22
-154 -31 -61 -9 -172 -32 -246 -50 -74 -19 -179 -39 -233 -45 -53 -5 -125 -18
-160 -29 -34 -11 -115 -28 -180 -38 l-117 -19 18 21 c34 37 35 46 11 72 -27
28 -36 30 -61 7 -24 -21 -23 -55 2 -78 11 -10 18 -21 15 -25 -5 -9 -111 -25
-252 -40 -56 -6 -157 -22 -225 -36 -112 -23 -156 -26 -488 -34 -201 -5 -420
-12 -487 -15 l-122 -7 -12 28 c-21 54 -26 59 -90 91 -35 18 -67 34 -71 35 -4
2 -26 2541 -47 5643 -50 7082 -47 6636 -38 6663 13 35 41 43 165 49 79 3 193
19 347 48 533 102 555 105 810 115 214 9 488 23 630 34 106 8 640 -4 835 -19z"/>
<path d="M2975 13673 l-60 -45 -3 26 c-5 37 -23 28 -48 -25 -20 -41 -21 -52
-13 -164 5 -66 36 -327 70 -580 56 -420 61 -471 55 -580 -5 -105 -3 -125 13
-162 26 -55 68 -77 148 -77 96 1 106 12 108 120 1 50 7 100 14 112 9 16 5 81
-19 294 -37 332 -52 430 -95 618 -18 80 -36 183 -40 230 -9 116 -46 281 -63
279 -4 0 -34 -21 -67 -46z"/>
<path d="M4388 13508 c-22 -8 -28 -16 -28 -40 0 -25 -3 -29 -20 -25 -19 5 -20
0 -20 -78 0 -46 13 -211 30 -367 16 -156 43 -416 60 -578 17 -162 35 -307 41
-322 15 -36 28 -39 136 -34 101 5 136 18 177 67 23 27 26 38 21 73 -3 22 -26
221 -50 441 -73 649 -90 774 -113 804 -32 44 -90 71 -152 70 -30 0 -67 -5 -82
-11z"/>
<path d="M3560 13437 l-13 -42 -15 33 c-9 17 -19 32 -23 32 -24 0 -11 -293 22
-500 14 -88 67 -298 85 -336 21 -43 51 -54 155 -54 90 0 91 0 124 33 51 51 52
83 11 249 -19 78 -47 206 -61 283 -32 178 -49 229 -92 276 -35 39 -66 53 -139
63 l-41 6 -13 -43z"/>
<path d="M5079 13303 c-62 -38 -75 -109 -59 -307 15 -193 24 -207 143 -219
l57 -6 1 32 1 32 11 -27 c12 -32 16 -33 61 -14 54 22 59 50 48 239 -11 180
-18 204 -77 256 -32 28 -42 31 -98 31 -39 0 -72 -6 -88 -17z"/>
<path d="M5629 13177 l-34 -23 -3 -194 c-2 -153 2 -229 19 -355 43 -333 48
-376 60 -590 l12 -220 33 -32 c30 -31 37 -33 99 -33 83 0 165 23 195 55 28 30
28 30 -29 480 -22 176 -52 425 -66 554 -27 245 -40 296 -86 337 -54 48 -146
57 -200 21z"/>
<path d="M17471 12742 c-66 -35 -73 -64 -67 -257 3 -93 17 -278 31 -410 24
-223 26 -260 19 -526 -8 -362 -9 -359 121 -359 35 0 67 -5 70 -10 4 -6 16 -8
28 -4 12 4 38 8 57 8 l35 2 18 99 c28 153 23 479 -13 951 -16 209 -34 394 -40
410 -36 93 -171 143 -259 96z"/>
<path d="M18183 12729 c-67 -33 -73 -56 -80 -303 -6 -224 -1 -269 36 -280 59
-19 229 -16 262 4 19 12 42 386 27 447 -16 66 -122 153 -185 153 -10 0 -37 -9
-60 -21z"/>
<path d="M15893 11955 c-78 -33 -88 -111 -53 -380 11 -82 25 -275 30 -430 6
-154 14 -351 19 -439 l7 -159 29 -25 c27 -22 35 -24 97 -19 67 6 69 5 90 -24
l22 -29 37 36 c21 20 47 59 59 87 25 57 27 15 -23 527 -63 646 -68 684 -83
728 -19 51 -64 99 -119 123 -48 22 -69 23 -112 4z"/>
<path d="M16655 11471 c-29 -12 -51 -40 -75 -94 -21 -47 -21 -49 -5 -213 32
-326 42 -344 154 -294 49 23 54 22 71 -20 16 -38 23 -38 42 3 l15 32 13 -42
c7 -24 16 -43 20 -43 15 0 50 140 50 202 0 72 -42 335 -59 366 -19 36 -91 90
-136 101 -50 13 -62 13 -90 2z"/>
<path d="M15060 10944 c-66 -178 -64 -157 -51 -483 28 -698 26 -674 89 -734
28 -27 31 -28 54 -13 21 14 30 14 78 1 78 -20 122 -7 141 43 6 15 0 142 -16
355 -13 183 -27 413 -30 512 -8 221 -17 274 -55 315 -30 32 -81 41 -120 20
-15 -8 -20 -6 -25 9 -3 10 -14 21 -25 24 -16 4 -23 -5 -40 -49z"/>
<path d="M18725 6075 c-14 -13 -25 -30 -25 -37 0 -14 90 -118 102 -118 11 0
78 73 77 85 -1 15 -97 95 -115 95 -8 0 -26 -11 -39 -25z"/>
<path d="M20614 6082 c-6 -4 -16 -17 -23 -29 -7 -15 -21 -23 -37 -23 -14 0
-39 -7 -56 -16 l-32 -17 38 -34 c32 -29 43 -34 69 -29 40 7 107 76 107 109 0
38 -36 60 -66 39z"/>
<path d="M19911 5881 c-9 -6 -11 -18 -7 -35 7 -29 38 -41 86 -34 29 4 30 3 36
-44 8 -58 26 -63 69 -18 32 34 32 33 -30 67 -16 9 -42 29 -56 44 -27 29 -70
38 -98 20z"/>
<path d="M14240 5830 c-16 -60 -4 -118 32 -152 37 -34 42 -35 57 -2 13 30 5
146 -13 168 -6 8 -23 18 -38 21 -25 6 -28 4 -38 -35z"/>
<path d="M14488 5829 c-10 -5 -18 -19 -18 -30 0 -19 66 -159 75 -159 2 0 16
20 30 43 35 60 33 99 -6 131 -33 28 -53 32 -81 15z"/>
<path d="M3106 5763 c-4 -5 -38 -8 -74 -8 -66 0 -67 0 -70 -28 -5 -39 15 -60
52 -54 17 2 41 -2 53 -10 19 -12 25 -12 50 1 36 18 50 34 58 67 5 22 2 27 -17
33 -31 8 -43 8 -52 -1z"/>
<path d="M20247 5741 c-23 -39 -22 -53 8 -111 30 -59 46 -62 98 -19 l37 31
-27 35 c-45 56 -81 93 -90 93 -5 0 -16 -13 -26 -29z"/>
<path d="M7878 5709 c-27 -15 -24 -74 5 -103 13 -13 53 -33 90 -45 36 -12 78
-31 92 -43 31 -25 72 -18 84 15 11 29 7 34 -31 42 -17 4 -49 24 -72 45 -39 35
-133 100 -145 100 -4 0 -14 -5 -23 -11z"/>
<path d="M21520 5665 c-5 -14 -13 -37 -16 -51 -5 -18 -10 -22 -17 -15 -15 15
-90 14 -105 -1 -13 -13 -16 -57 -4 -74 10 -15 47 -34 66 -34 9 0 26 20 38 45
22 45 22 45 75 45 29 0 53 2 53 5 0 7 -71 105 -76 105 -3 0 -9 -11 -14 -25z"/>
<path d="M2456 5487 c-11 -8 -27 -12 -35 -10 -38 10 -78 -65 -69 -128 2 -19
10 -25 35 -27 28 -3 35 1 45 25 18 42 39 63 63 63 30 0 47 23 43 57 -2 23 -8
29 -33 31 -16 2 -39 -3 -49 -11z"/>
<path d="M18723 5478 c-23 -12 -40 -25 -37 -29 2 -4 36 -27 74 -50 39 -24 70
-48 70 -52 0 -5 -12 -23 -26 -40 -24 -29 -25 -31 -7 -38 10 -3 42 -8 71 -11
62 -6 72 4 47 51 -11 23 -13 36 -5 50 18 35 11 47 -39 71 -27 12 -54 33 -60
46 -13 30 -34 30 -88 2z"/>
<path d="M14477 5483 c-12 -11 -8 -58 7 -78 10 -14 21 -17 49 -12 30 5 41 0
77 -30 22 -19 43 -33 45 -31 3 3 8 26 11 51 8 58 -5 77 -56 77 -21 0 -43 7
-50 15 -12 15 -71 21 -83 8z"/>
<path d="M18289 5345 l31 -54 -26 9 c-43 17 -62 12 -106 -27 l-41 -38 99 -8
c189 -15 179 -15 182 15 2 20 -4 31 -22 44 -18 11 -26 25 -26 45 0 42 -32 69
-81 69 l-41 0 31 -55z"/>
<path d="M16110 5341 c0 -27 7 -44 26 -62 23 -21 25 -29 19 -68 -7 -44 -6 -44
55 -102 34 -33 65 -59 69 -59 3 0 15 14 25 31 23 40 14 74 -25 95 -30 15 -31
18 -26 62 5 49 -5 82 -25 82 -7 0 -21 11 -33 24 -11 13 -35 26 -52 30 -32 5
-33 5 -33 -33z"/>
<path d="M3290 5329 c-13 -48 -5 -59 47 -59 20 0 40 -8 52 -21 13 -15 28 -20
52 -17 28 2 35 8 37 29 4 33 -20 54 -89 77 -30 11 -62 22 -71 26 -13 6 -19 -1
-28 -35z"/>
<path d="M19403 5358 c-6 -7 -13 -39 -16 -70 l-6 -58 69 0 69 0 -15 48 c-8 26
-17 57 -20 70 -5 17 -13 22 -39 22 -18 0 -37 -6 -42 -12z"/>
<path d="M17405 5332 c-88 -31 -187 -81 -192 -98 -6 -19 45 -64 72 -64 20 0
29 7 38 30 l11 30 32 -31 32 -31 7 41 7 41 67 0 c40 0 75 5 85 13 18 13 17 16
-8 55 -32 51 -43 52 -151 14z"/>
<path d="M13994 5282 c-48 -59 -48 -59 -1 -86 57 -34 104 -34 118 -2 17 37 3
72 -38 101 -21 14 -40 25 -43 25 -3 0 -19 -17 -36 -38z"/>
<path d="M3607 5263 c-4 -3 -7 -33 -7 -66 0 -44 -5 -65 -20 -84 -11 -14 -20
-29 -20 -32 0 -6 103 -71 113 -71 3 0 15 13 26 29 l21 29 -50 40 c-50 40 -50
41 -24 44 34 4 53 31 38 55 -15 24 -70 64 -77 56z"/>
<path d="M6875 5250 c-43 -17 -66 -55 -63 -101 2 -23 8 -44 13 -46 6 -2 35 11
65 29 41 25 57 41 64 66 5 20 5 36 0 41 -15 14 -58 20 -79 11z"/>
<path d="M19676 5225 c-14 -11 -17 -22 -13 -49 4 -26 1 -38 -14 -52 -23 -21
-24 -47 -2 -69 16 -16 30 -16 91 1 18 5 22 2 22 -15 0 -34 18 -61 41 -61 23 0
79 27 78 38 -1 17 -156 217 -169 219 -8 2 -23 -4 -34 -12z"/>
<path d="M20384 5218 c-16 -12 -31 -23 -33 -25 -2 -2 2 -15 9 -29 14 -25 16
-25 90 -19 60 6 79 11 92 29 24 29 23 31 -25 50 -58 22 -99 20 -133 -6z"/>
<path d="M18723 5165 c-17 -12 -63 -107 -63 -129 0 -2 16 -11 35 -20 42 -20
75 -8 75 27 0 13 13 33 32 48 28 24 31 29 18 44 -11 14 -61 45 -72 45 -2 0
-13 -7 -25 -15z"/>
<path d="M16033 5100 c-20 -12 -33 -28 -33 -40 0 -15 9 -22 33 -27 30 -7 29
-8 -26 -17 l-57 -11 32 -52 c46 -75 67 -68 83 24 3 23 13 47 21 54 17 14 18
48 0 72 -16 21 -14 21 -53 -3z"/>
<path d="M3433 5100 c-13 -6 -23 -18 -23 -30 0 -24 78 -202 94 -213 14 -9 59
1 68 16 4 7 8 27 8 45 0 24 -4 32 -18 32 -35 0 -59 28 -66 77 -13 88 -16 92
-63 73z"/>
<path d="M6671 5086 c-6 -7 -15 -35 -20 -62 -9 -45 -8 -51 14 -73 l23 -23 66
53 c36 29 66 54 66 55 0 1 -19 16 -42 33 -44 33 -88 40 -107 17z"/>
<path d="M9164 5023 c-10 -68 12 -127 48 -131 37 -4 68 14 68 41 -1 40 -37
105 -69 121 -16 9 -32 16 -35 16 -3 0 -8 -21 -12 -47z"/>
<path d="M17523 5042 c-7 -4 -17 -37 -22 -72 -5 -36 -11 -72 -13 -80 -2 -12 9
-16 48 -18 50 -3 51 -2 58 29 3 17 6 54 6 80 0 44 -3 51 -26 59 -30 12 -35 12
-51 2z"/>
<path d="M20633 5029 c-42 -26 -72 -116 -44 -133 10 -7 132 66 145 86 5 8 6
27 2 41 -5 22 -12 27 -39 27 -17 0 -46 -9 -64 -21z"/>
<path d="M7277 5013 c-9 -8 -9 -66 -1 -87 5 -12 20 -16 61 -16 47 0 59 4 85
30 16 17 28 35 26 42 -8 23 -153 49 -171 31z"/>
<path d="M17874 4982 c-10 -6 -44 -65 -44 -76 0 -2 27 -7 60 -11 33 -4 60 -11
60 -16 0 -5 12 -16 26 -26 24 -16 28 -16 60 2 52 28 42 61 -24 76 -22 5 -58
20 -78 34 -40 27 -44 28 -60 17z"/>
<path d="M15179 4885 c-29 -15 -45 -44 -32 -56 4 -4 33 -14 63 -23 29 -9 67
-28 82 -43 15 -15 31 -24 34 -20 4 4 9 29 12 55 l4 49 -35 7 c-19 4 -46 15
-60 26 -30 23 -34 24 -68 5z"/>
<path d="M7308 4809 c-43 -24 2 -100 50 -85 14 5 24 -1 36 -19 21 -32 81 -36
91 -5 9 28 -12 60 -39 60 -13 0 -40 14 -61 30 -41 32 -51 35 -77 19z"/>
<path d="M2395 4780 c-29 -57 -18 -91 37 -104 23 -5 27 -12 30 -48 3 -38 6
-43 36 -52 18 -5 34 -7 36 -5 2 2 7 30 11 61 l7 56 -41 -5 -42 -6 11 27 c22
60 3 106 -45 106 -17 0 -29 -9 -40 -30z"/>
<path d="M14930 4762 c-22 -18 -46 -114 -34 -133 2 -5 20 -11 39 -15 27 -5 45
0 90 26 30 17 55 35 55 39 0 14 -96 101 -112 101 -9 0 -26 -8 -38 -18z"/>
<path d="M6670 4722 c-17 -14 -21 -25 -17 -44 6 -21 14 -26 53 -32 92 -12 127
-7 147 19 14 19 15 26 5 30 -42 13 -151 45 -158 45 -4 0 -18 -8 -30 -18z"/>
<path d="M3076 4709 c-19 -15 -26 -30 -26 -55 l0 -34 50 0 c48 0 51 -2 67 -37
23 -49 66 -58 84 -19 11 22 8 32 -17 73 -31 49 -84 93 -114 93 -10 0 -29 -9
-44 -21z"/>
<path d="M15237 4664 c-31 -19 -57 -38 -57 -40 0 -11 66 -63 80 -64 8 0 37 19
63 43 47 40 48 43 36 70 -17 38 -51 35 -122 -9z"/>
<path d="M8738 4630 c-40 -43 -49 -80 -25 -111 11 -15 17 -15 44 -4 17 7 34
23 38 35 5 15 10 18 19 11 13 -11 96 6 96 20 0 30 -23 58 -59 73 -59 23 -70
21 -113 -24z"/>
<path d="M4230 4636 c0 -7 -3 -27 -6 -43 l-6 -30 84 -17 c45 -10 91 -20 101
-22 13 -4 17 1 17 26 0 50 -16 70 -55 70 -18 0 -44 4 -57 9 -53 19 -78 22 -78
7z"/>
<path d="M18911 4556 c-20 -46 -21 -46 -60 -40 -33 5 -41 3 -50 -14 -17 -32
-15 -37 49 -81 64 -45 85 -47 99 -9 8 22 -4 176 -14 186 -2 3 -13 -16 -24 -42z"/>
<path d="M20080 4541 c-25 -67 -21 -97 16 -113 13 -6 24 -19 24 -28 0 -23 32
-50 58 -50 35 0 43 30 21 79 -16 37 -17 49 -7 77 9 26 9 36 -2 49 -10 13 -72
45 -85 45 -1 0 -13 -27 -25 -59z"/>
<path d="M17312 4502 c-32 -99 -27 -142 18 -142 32 0 44 20 56 92 l13 73 -27
22 c-15 12 -29 22 -33 23 -3 0 -15 -31 -27 -68z"/>
<path d="M19357 4532 c-24 -26 -21 -44 11 -74 66 -61 113 -74 132 -38 14 25
-7 67 -50 104 -37 30 -70 33 -93 8z"/>
<path d="M20630 4451 l0 -51 43 0 c40 0 45 -3 60 -35 19 -39 45 -45 70 -17 21
23 22 66 1 86 -18 18 -40 21 -49 6 -9 -14 -25 -12 -25 3 0 21 -33 46 -68 53
l-32 7 0 -52z"/>
<path d="M5987 4472 c-22 -25 -22 -25 18 -83 19 -28 35 -55 35 -60 0 -16 46
-10 62 9 15 15 14 22 -4 70 -14 36 -28 57 -48 67 -37 19 -43 19 -63 -3z"/>
<path d="M14121 4461 c-30 -41 -19 -57 42 -64 29 -3 71 -16 95 -28 74 -37 143
0 92 51 -16 16 -28 19 -55 14 -27 -5 -45 0 -88 25 -30 17 -57 31 -60 31 -3 0
-15 -13 -26 -29z"/>
<path d="M19024 4391 c-52 -23 -84 -64 -84 -106 0 -39 19 -58 56 -53 24 3 31
12 55 78 41 110 40 112 -27 81z"/>
<path d="M16345 4348 c-55 -11 -105 -24 -112 -30 -18 -15 -16 -42 5 -68 23
-28 58 -20 74 16 8 17 17 23 27 18 9 -3 32 -8 52 -11 35 -5 36 -5 49 41 7 26
11 48 9 50 -2 2 -49 -6 -104 -16z"/>
<path d="M18588 4304 c-32 -17 -39 -63 -12 -85 8 -7 22 -25 30 -41 12 -23 21
-28 50 -28 48 0 61 33 33 86 -10 21 -19 44 -19 51 0 12 -31 33 -47 33 -4 -1
-20 -8 -35 -16z"/>
<path d="M16825 4240 c-11 -5 -35 -25 -54 -44 -18 -20 -37 -33 -42 -30 -13 8
-69 -38 -69 -56 0 -9 10 -25 21 -36 21 -19 22 -19 33 0 34 56 40 60 74 42 17
-9 36 -16 41 -16 10 0 76 128 69 135 -9 10 -56 13 -73 5z"/>
<path d="M14857 4213 c-15 -16 -15 -19 9 -50 19 -26 24 -40 19 -63 -6 -28 -5
-29 38 -35 46 -7 87 6 87 27 0 6 -16 40 -35 75 -33 57 -39 63 -68 63 -18 0
-40 -8 -50 -17z"/>
<path d="M7716 4174 c-32 -31 -8 -84 38 -84 39 0 122 29 140 49 16 17 15 19
-8 35 -34 22 -148 22 -170 0z"/>
<path d="M2758 4138 c-14 -18 -33 -48 -42 -66 l-17 -33 28 -12 c16 -7 57 -29
91 -51 60 -36 64 -37 77 -20 23 30 18 56 -26 130 -23 38 -42 70 -43 70 -1 1
-11 4 -22 8 -16 5 -27 -1 -46 -26z"/>
<path d="M5262 4111 c-17 -17 -32 -33 -32 -37 0 -4 16 -36 35 -70 l36 -64 32
13 c18 8 33 20 35 29 3 17 -57 158 -67 158 -4 0 -21 -13 -39 -29z"/>
<path d="M18071 4035 c-27 -19 -38 -22 -53 -14 -28 15 -30 9 -17 -51 12 -57
38 -90 69 -90 11 0 23 -1 26 -2 9 -4 56 152 50 168 -8 20 -36 16 -75 -11z"/>
<path d="M17302 4028 c-36 -36 12 -108 70 -108 34 0 99 29 105 46 4 13 -110
74 -139 74 -13 0 -29 -5 -36 -12z"/>
<path d="M17561 3983 c-22 -18 -23 -22 -10 -48 20 -41 92 -68 153 -56 66 12
98 36 94 69 -3 24 -8 28 -53 33 -27 3 -75 10 -105 14 -47 6 -59 4 -79 -12z"/>
<path d="M5940 3953 c-20 -18 -33 -41 -37 -65 l-6 -38 39 0 c22 0 51 8 65 18
33 22 89 69 89 75 0 10 -69 37 -94 37 -14 0 -39 -12 -56 -27z"/>
<path d="M19074 3970 c-34 -14 -54 -50 -54 -97 0 -70 54 -99 86 -45 9 15 30
47 47 70 25 37 27 46 16 58 -19 18 -69 26 -95 14z"/>
<path d="M18585 3903 c-14 -15 -25 -30 -25 -34 0 -3 -12 -11 -26 -17 -21 -10
-25 -18 -22 -50 3 -34 6 -37 36 -40 28 -3 32 -7 32 -32 0 -51 60 -67 104 -27
l26 22 -28 33 c-25 30 -30 32 -55 23 -19 -7 -27 -7 -27 0 0 21 21 49 38 49 37
0 43 14 25 58 -21 49 -42 53 -78 15z"/>
<path d="M16548 3894 c-4 -3 0 -22 8 -41 9 -19 13 -37 11 -39 -3 -3 -19 7 -36
22 l-32 27 -30 -29 c-35 -34 -37 -63 -6 -92 l24 -22 46 41 c32 28 47 36 47 25
0 -36 44 0 55 46 5 19 1 32 -14 47 -20 20 -61 28 -73 15z"/>
<path d="M7728 3832 c-7 -11 -24 -25 -38 -32 -48 -24 -70 -51 -59 -71 19 -37
199 -17 199 21 0 75 -68 129 -102 82z"/>
<path d="M20897 3774 c-12 -12 -8 -56 11 -119 l18 -59 54 3 c30 1 56 4 58 6 2
2 -13 22 -33 44 -30 33 -35 44 -25 55 6 8 10 27 8 43 -3 25 -7 28 -43 31 -23
2 -44 0 -48 -4z"/>
<path d="M19742 3730 c-18 -16 -32 -32 -32 -35 0 -17 23 -45 64 -78 l44 -37
21 62 c23 67 24 64 -40 102 -24 14 -27 14 -57 -14z"/>
<path d="M6231 3664 c-20 -28 -31 -58 -31 -79 0 -33 -1 -34 -42 -37 -40 -3
-43 -5 -46 -35 -4 -37 6 -40 69 -23 31 9 36 14 32 34 -4 20 0 24 36 30 38 6
44 11 69 62 l27 56 -24 19 c-36 29 -57 23 -90 -27z"/>
<path d="M15525 3586 c-30 -40 -30 -44 -1 -79 15 -19 21 -37 18 -53 -5 -26 21
-64 44 -64 14 0 54 47 54 64 -1 6 -10 22 -21 35 -15 18 -23 21 -31 13 -23 -23
-25 -12 -6 27 15 30 17 44 9 59 -18 34 -39 34 -66 -2z"/>
<path d="M17968 3558 c-63 -19 -68 -23 -68 -49 0 -27 3 -29 38 -29 48 1 172
17 179 23 9 10 -49 77 -66 76 -9 -1 -46 -10 -83 -21z"/>
<path d="M20910 3515 c0 -53 -1 -55 -46 -86 l-46 -31 32 -20 c23 -13 46 -18
79 -16 l46 3 -2 60 c-2 33 -5 79 -8 103 -5 36 -10 42 -31 42 -22 0 -24 -3 -24
-55z"/>
<path d="M20125 3458 c13 -112 48 -151 102 -113 21 15 21 15 2 52 -10 20 -19
49 -19 63 0 35 -17 50 -57 50 l-34 0 6 -52z"/>
<path d="M5813 3485 c-46 -20 -73 -51 -73 -85 0 -27 3 -30 30 -30 17 0 53 11
80 25 45 23 50 29 50 59 0 47 -28 57 -87 31z"/>
<path d="M7276 3419 c5 -13 8 -54 7 -91 -2 -65 -1 -68 23 -74 21 -6 33 1 66
33 32 32 41 50 45 85 6 51 7 51 -96 64 -53 7 -53 7 -45 -17z"/>
<path d="M16389 3433 c-25 -4 -38 -25 -39 -60 0 -21 73 -25 146 -7 80 20 88
25 79 53 -6 19 -13 21 -83 20 -42 -1 -89 -4 -103 -6z"/>
<path d="M2473 3370 c-68 -32 -79 -53 -43 -85 15 -14 28 -16 57 -10 21 4 53 7
71 6 20 -1 35 4 38 14 6 15 -34 96 -51 102 -5 2 -38 -10 -72 -27z"/>
<path d="M17538 3245 c-20 -14 -42 -25 -47 -25 -15 0 -14 -53 1 -68 7 -7 20
-12 30 -12 17 0 18 -2 3 -31 -15 -28 -15 -33 0 -55 17 -26 35 -30 66 -14 25
14 24 20 -6 65 -15 20 -25 39 -23 40 2 1 27 14 56 29 59 30 67 54 27 80 -34
22 -64 20 -107 -9z"/>
<path d="M7207 3231 c-21 -11 -45 -17 -52 -15 -7 3 -28 -8 -45 -23 -26 -23
-31 -34 -25 -52 7 -22 11 -23 61 -18 42 4 66 14 105 42 47 35 49 39 36 59 -19
29 -35 30 -80 7z"/>
<path d="M16806 3201 c-11 -20 -25 -31 -51 -35 -32 -6 -35 -10 -35 -43 l0 -36
53 6 c58 6 128 34 135 55 4 13 -59 82 -77 82 -6 0 -17 -13 -25 -29z"/>
<path d="M5314 3155 c-22 -34 -56 -41 -92 -20 -43 26 -82 14 -82 -25 0 -25 8
-34 61 -65 l60 -35 75 51 c41 28 74 55 74 60 0 4 -4 19 -10 33 -13 36 -63 36
-86 1z"/>
<path d="M5491 3095 c-42 -49 -41 -85 5 -99 35 -11 215 34 214 53 -1 11 -38
51 -47 51 -5 0 -22 -14 -39 -31 l-29 -31 -5 44 c-5 40 -7 43 -36 46 -25 2 -37
-4 -63 -33z"/>
<path d="M19468 3053 c-10 -2 -18 -8 -18 -12 0 -3 29 -35 64 -70 61 -61 66
-64 101 -58 21 3 40 9 43 12 10 10 -23 58 -50 74 -15 9 -32 26 -37 38 -8 18
-18 23 -48 22 -21 -1 -46 -3 -55 -6z"/>
<path d="M19176 2915 c-8 -32 3 -48 44 -65 26 -11 30 -18 30 -52 l0 -41 38 6
c20 3 61 9 90 13 45 6 52 10 52 28 0 14 -16 34 -42 54 -35 27 -43 30 -51 17
-5 -9 -22 -15 -42 -15 -30 0 -35 4 -35 23 0 32 -11 44 -46 51 -28 6 -32 4 -38
-19z"/>
<path d="M18945 2729 c-12 -22 -21 -29 -33 -24 -50 21 -61 11 -62 -52 0 -39
63 -43 144 -9 30 12 36 20 36 45 0 20 -8 36 -26 50 -35 28 -41 27 -59 -10z"/>
<path d="M16994 2732 c-21 -13 -26 -69 -10 -101 9 -16 16 -41 16 -54 0 -14 6
-30 14 -36 17 -15 86 -4 85 13 0 6 -15 49 -33 96 -32 81 -47 99 -72 82z"/>
<path d="M17728 2693 c-34 -5 -38 -18 -22 -78 7 -27 13 -67 14 -87 l0 -38 55
0 c30 0 55 3 55 8 0 4 -9 20 -20 37 l-19 29 30 26 31 25 -40 43 c-21 23 -43
41 -48 41 -5 -1 -21 -4 -36 -6z"/>
<path d="M17204 2606 c-3 -8 -4 -25 -2 -37 2 -19 16 -28 73 -47 99 -33 148
-14 112 42 -28 43 -170 75 -183 42z"/>
<path d="M19426 2498 c-3 -7 -7 -27 -10 -44 -6 -35 8 -44 72 -44 63 0 132 46
132 87 0 18 -189 19 -194 1z"/>
<path d="M3175 2412 c-49 -27 -70 -44 -70 -58 0 -16 8 -19 50 -22 28 -1 68 1
90 5 37 8 40 11 43 47 3 37 -11 66 -32 66 -6 0 -42 -17 -81 -38z"/>
<path d="M20328 2334 c-12 -12 -9 -57 5 -76 7 -9 25 -20 40 -23 18 -5 27 -14
29 -33 3 -29 29 -39 74 -28 17 5 24 13 24 31 0 13 -4 27 -10 30 -5 3 -10 19
-10 34 0 44 -19 59 -85 66 -33 4 -63 3 -67 -1z"/>
<path d="M18722 2260 c-6 -11 -12 -27 -12 -35 0 -9 -7 -18 -15 -21 -10 -4 -15
-21 -15 -54 0 -54 12 -64 66 -54 44 8 45 33 2 86 -29 37 -30 40 -8 28 20 -11
29 -10 57 5 18 10 33 21 33 24 0 10 -60 41 -78 41 -10 0 -23 -9 -30 -20z"/>
<path d="M20398 1819 c-41 -42 -48 -77 -22 -103 37 -38 82 -9 128 81 21 41 21
40 -11 47 -16 4 -35 9 -43 11 -8 2 -32 -14 -52 -36z"/>
<path d="M3076 1773 c-3 -4 -25 -9 -49 -12 l-42 -6 0 -57 c0 -41 6 -62 19 -77
11 -12 22 -21 25 -21 12 0 41 58 41 82 0 20 8 26 46 36 35 10 45 16 40 28 -3
9 -6 20 -6 25 0 10 -63 12 -74 2z"/>
</g>
</svg>
