<?xml version="1.0" standalone="no"?>
<!DOCTYPE svg PUBLIC "-//W3C//DTD SVG 20010904//EN"
 "http://www.w3.org/TR/2001/REC-SVG-20010904/DTD/svg10.dtd">
<svg version="1.0" xmlns="http://www.w3.org/2000/svg"
 width="2387.000000pt" height="1558.000000pt" viewBox="0 0 2387.000000 1558.000000"
 preserveAspectRatio="xMidYMid meet">
<metadata>
Created by potrace 1.16, written by Peter Selinger 2001-2019
</metadata>
<g transform="translate(0.000000,1558.000000) scale(0.100000,-0.100000)"
fill="#fff" stroke="none">
<path d="M0 7790 l0 -7790 11935 0 11935 0 0 7790 0 7790 -11935 0 -11935 0 0
-7790z m1813 7053 c25 -4 50 -18 71 -39 24 -25 42 -34 65 -34 50 0 87 -25 111
-75 21 -44 22 -50 11 -189 -6 -79 -11 -153 -11 -164 0 -19 2 -19 73 -6 213 42
806 107 1282 141 290 20 899 23 1180 5 259 -17 870 -86 1041 -117 299 -55 686
-168 996 -290 181 -72 580 -268 763 -375 319 -188 734 -479 1046 -737 161
-132 977 -963 1150 -1170 68 -81 169 -197 224 -257 55 -60 138 -152 184 -205
222 -255 435 -444 891 -787 361 -273 584 -388 855 -441 130 -25 504 -25 628 0
137 28 289 81 432 151 273 135 449 265 805 596 69 64 228 208 354 319 294 262
713 650 936 866 378 368 726 659 1004 842 207 136 585 329 946 483 231 98 528
205 1090 393 639 214 894 281 1280 336 155 22 1031 113 1265 131 154 12 275
26 590 70 116 16 275 34 355 40 312 24 316 26 293 149 -15 79 -15 81 9 133 14
29 43 75 66 101 23 27 42 53 42 59 0 22 33 48 60 48 15 0 44 -7 63 -15 56 -23
130 -19 187 10 59 30 101 31 221 8 84 -16 91 -16 163 2 92 23 127 15 215 -50
60 -44 60 -44 46 -72 -22 -41 -18 -77 11 -136 24 -46 26 -59 21 -122 -4 -39
-12 -94 -18 -123 -10 -40 -10 -95 -1 -240 8 -137 9 -448 3 -1162 -5 -536 -12
-982 -16 -991 -3 -8 -7 -789 -9 -1735 -3 -1291 -7 -1751 -16 -1849 -8 -82 -13
-317 -15 -630 -1 -275 -5 -621 -9 -770 -12 -437 -10 -707 8 -920 32 -397 39
-704 30 -1285 -5 -305 -10 -703 -11 -885 -1 -181 -6 -679 -11 -1105 -9 -682
-13 -796 -31 -950 -27 -223 -27 -378 0 -665 17 -177 19 -236 10 -258 -14 -37
-142 -98 -272 -131 -101 -26 -275 -46 -397 -46 -70 0 -74 1 -108 36 -31 30
-40 34 -67 29 -18 -4 -46 -16 -63 -26 -39 -24 -40 -24 -47 2 -5 19 -11 21 -41
15 l-36 -7 0 281 c0 154 -2 280 -4 280 -4 0 -204 -58 -226 -66 -12 -4 -13 -6
0 -14 8 -5 12 -11 10 -13 -3 -2 -86 -9 -185 -15 -99 -6 -232 -21 -294 -32
-109 -19 -132 -20 -430 -10 -174 5 -500 19 -726 30 -225 11 -416 20 -422 20
-7 0 -13 5 -13 10 0 6 12 10 27 10 18 0 24 3 17 10 -6 6 -36 4 -85 -6 -74 -15
-79 -15 -358 26 -440 63 -583 93 -1141 244 -213 58 -290 87 -540 206 -556 264
-644 313 -1058 597 -114 79 -248 171 -299 205 -50 35 -125 88 -165 119 -40 31
-142 106 -226 166 -85 61 -190 140 -235 176 -45 37 -127 100 -182 141 -55 41
-159 129 -232 194 -153 138 -202 177 -608 487 -498 379 -668 519 -1040 855
-533 481 -588 517 -1032 658 -138 45 -266 88 -284 97 -26 14 -47 16 -108 11
-49 -5 -128 -1 -221 10 -233 27 -433 12 -666 -51 -179 -47 -298 -105 -509
-245 -55 -36 -130 -83 -167 -103 -36 -20 -78 -52 -92 -69 -14 -18 -31 -37 -38
-43 -6 -5 -57 -55 -112 -111 -56 -55 -118 -113 -139 -128 -21 -15 -55 -50 -75
-78 -24 -33 -70 -72 -135 -115 -95 -64 -110 -82 -104 -127 2 -20 -13 -32 -56
-41 -15 -3 -53 -29 -83 -58 -46 -45 -54 -59 -54 -89 0 -34 -2 -37 -32 -40 -28
-3 -59 -32 -226 -218 -107 -118 -244 -274 -304 -347 -59 -73 -128 -148 -152
-168 -28 -22 -46 -47 -50 -65 -6 -33 -10 -37 -145 -155 -50 -44 -126 -117
-168 -163 -134 -147 -393 -348 -560 -436 -40 -21 -93 -56 -118 -78 -24 -22
-49 -37 -55 -33 -14 9 -46 -11 -83 -50 -41 -44 -207 -140 -478 -276 -253 -126
-362 -174 -594 -259 -426 -157 -628 -216 -1165 -343 -885 -210 -1386 -307
-1880 -361 -452 -51 -677 -66 -969 -66 l-279 0 -6 -27 c-3 -16 -15 -80 -27
-143 -25 -131 -34 -150 -90 -186 -22 -14 -49 -41 -61 -59 -32 -56 -52 -58
-428 -49 l-333 9 -20 27 c-19 26 -19 29 -5 67 13 34 14 42 3 51 -8 7 -21 31
-30 54 -16 40 -16 67 0 362 8 176 20 384 26 464 6 80 14 595 19 1145 5 550 13
1104 19 1230 19 437 24 930 12 1174 -32 620 -41 903 -51 1476 -6 341 -15 746
-21 900 -25 672 -30 1146 -30 2695 0 1085 3 1699 10 1805 13 184 34 1519 29
1855 -6 475 -4 542 22 595 17 36 23 64 22 109 -1 84 15 153 41 171 18 12 66
15 267 15 135 0 262 -3 283 -7z"/>
<path d="M3800 14134 c-118 -7 -321 -18 -450 -23 -251 -11 -291 -17 -775 -111
-182 -35 -285 -50 -342 -50 -45 0 -105 -5 -132 -11 -46 -10 -52 -14 -61 -47
-8 -26 2 -1847 33 -6170 25 -3373 46 -6134 48 -6136 2 -1 24 -11 49 -20 65
-26 108 -61 112 -94 l3 -27 130 0 c72 0 288 4 480 9 304 7 367 11 480 32 72
14 204 34 295 44 91 11 179 25 195 30 17 5 86 19 155 30 69 11 152 28 185 39
33 10 96 22 140 25 44 4 143 23 220 42 77 19 196 43 265 53 69 11 147 27 173
36 26 10 62 15 80 12 22 -3 48 3 82 19 28 13 93 30 147 38 53 8 113 19 135 25
21 6 72 15 113 22 41 6 138 34 215 61 77 28 273 96 435 153 372 129 394 138
539 224 66 40 197 107 291 151 354 165 689 390 1085 730 221 190 320 294 566
590 57 68 173 201 258 295 85 93 164 181 176 195 20 22 22 32 16 83 l-7 58 30
-3 c23 -2 38 4 56 23 26 27 372 344 657 601 274 247 417 352 623 457 189 97
342 145 589 186 84 14 183 32 222 40 38 8 107 19 152 24 119 13 627 -4 832
-29 162 -19 175 -22 263 -65 68 -33 104 -57 135 -92 111 -126 199 -209 278
-263 47 -33 139 -111 203 -174 64 -63 189 -170 279 -237 89 -67 194 -152 233
-188 39 -36 95 -87 125 -112 30 -26 70 -67 89 -92 19 -25 46 -48 60 -52 42
-10 121 -68 197 -144 63 -62 76 -71 99 -65 38 10 74 -13 74 -47 0 -37 29 -65
130 -129 187 -117 309 -203 397 -277 142 -121 369 -328 470 -430 72 -72 109
-101 171 -132 85 -43 313 -209 472 -345 53 -45 126 -100 161 -122 35 -21 121
-83 191 -139 70 -55 180 -134 245 -175 65 -41 178 -114 252 -162 73 -49 190
-115 260 -149 69 -33 163 -83 209 -111 67 -41 145 -72 415 -165 403 -138 551
-183 761 -228 474 -101 870 -150 1381 -170 83 -3 242 -13 355 -23 402 -33 958
-20 1340 32 91 12 93 12 70 -6 l-22 -18 33 -1 c19 -1 44 -4 57 -8 20 -5 15
-10 -45 -40 l-68 -35 34 -5 c31 -5 33 -7 18 -20 -25 -20 -20 -31 14 -31 30 0
31 2 25 30 -5 29 -4 30 27 28 l32 -3 7 215 c4 118 14 2492 23 5275 8 2783 18
5517 22 6076 l6 1017 -54 4 c-90 7 -753 -43 -1219 -92 -151 -16 -342 -32 -425
-35 -232 -10 -799 -90 -1175 -165 -201 -41 -528 -129 -730 -198 -114 -39 -539
-200 -970 -367 -801 -311 -1235 -560 -1661 -952 -284 -261 -467 -432 -669
-628 -124 -120 -301 -283 -395 -363 -93 -80 -226 -200 -295 -267 -136 -131
-358 -327 -598 -529 -397 -332 -538 -417 -876 -527 -212 -68 -273 -79 -481
-86 -143 -4 -223 -1 -390 17 -115 11 -239 28 -275 36 -137 31 -779 408 -992
582 -46 38 -138 110 -206 161 -74 57 -159 133 -215 194 -50 55 -176 184 -278
286 -102 102 -309 323 -459 491 -443 494 -521 579 -657 710 -289 281 -816 738
-993 862 -82 58 -506 319 -653 402 -527 299 -1181 524 -1687 580 -621 70
-1150 89 -1620 60z m-746 -441 c24 -80 38 -154 46 -243 5 -58 25 -172 44 -255
40 -173 55 -269 92 -595 23 -206 25 -245 15 -316 -6 -44 -11 -106 -11 -137 0
-64 -7 -71 -77 -80 -138 -17 -203 64 -181 226 9 63 5 111 -32 387 -82 625 -91
697 -97 806 -6 104 -4 114 16 148 24 37 41 40 41 5 0 -17 8 -14 63 25 34 25
65 46 69 46 4 0 9 -8 12 -17z m1484 -188 c39 -17 78 -49 93 -78 20 -36 156
-1227 146 -1269 -4 -15 -23 -39 -43 -54 -30 -23 -49 -28 -141 -36 -141 -13
-141 -13 -159 154 -53 482 -106 1011 -111 1107 -6 112 -6 114 15 109 17 -5 21
-1 24 25 2 24 10 33 38 43 48 17 94 17 138 -1z m-874 -44 c48 -12 102 -62 128
-119 11 -23 32 -114 48 -201 16 -87 45 -222 64 -299 26 -103 33 -149 27 -170
-24 -83 -57 -102 -174 -102 -109 0 -128 14 -158 112 -56 191 -99 469 -100 665
-1 98 7 119 31 74 l16 -33 16 41 c18 45 29 48 102 32z m1565 -155 c39 -20 88
-79 95 -113 3 -15 10 -93 16 -173 11 -167 2 -203 -57 -227 -32 -13 -33 -13
-50 25 l-17 37 -4 -41 -3 -40 -60 7 c-107 12 -121 41 -126 269 -4 145 -2 169
14 199 33 62 127 90 192 57z m573 -138 c39 -22 69 -65 81 -118 3 -14 20 -149
37 -300 17 -151 46 -401 66 -555 53 -418 51 -379 22 -408 -53 -53 -214 -75
-275 -37 -43 26 -49 53 -62 304 -7 115 -21 275 -32 355 -42 304 -48 381 -49
552 0 170 1 176 23 196 12 11 31 26 42 32 28 16 99 6 147 -21z m11809 -423
c56 -20 107 -69 119 -115 5 -19 23 -212 40 -428 41 -531 41 -761 -1 -968 -8
-44 -13 -51 -29 -47 -11 3 -34 0 -51 -6 -20 -7 -36 -8 -43 -2 -7 6 -43 11 -81
13 -66 3 -70 4 -92 37 l-23 35 6 295 c5 275 4 314 -20 546 -15 138 -29 311
-33 385 -5 124 -4 140 15 183 17 38 30 52 64 67 52 24 73 24 129 5z m725 -40
c31 -22 61 -53 74 -78 22 -42 23 -45 13 -255 -5 -116 -11 -214 -14 -217 -3 -3
-32 -10 -64 -17 -46 -9 -60 -9 -63 1 -2 7 -8 8 -15 3 -18 -14 -125 2 -145 21
-22 23 -27 127 -14 337 9 168 19 197 71 225 47 26 100 19 157 -20z m-2300
-777 c82 -55 92 -83 119 -345 13 -126 35 -356 50 -513 14 -157 30 -309 36
-339 19 -93 -2 -164 -69 -233 l-35 -37 -23 24 c-22 24 -28 25 -91 19 -64 -6
-69 -5 -95 20 -33 34 -36 52 -43 306 -11 368 -25 629 -39 728 -23 159 -29 276
-16 316 29 88 119 112 206 54z m743 -477 c35 -18 111 -92 111 -109 0 -4 11
-72 25 -152 14 -80 25 -167 25 -194 0 -48 -37 -186 -50 -186 -4 0 -13 19 -20
42 l-12 43 -20 -39 -20 -39 -18 41 -19 41 -56 -25 c-102 -47 -115 -27 -140
212 -22 209 -21 253 4 301 41 82 110 104 190 64z m-1658 -485 c10 -22 13 -23
38 -10 33 18 45 17 81 -1 60 -31 71 -73 81 -319 4 -121 17 -342 29 -490 26
-351 26 -383 -2 -413 -25 -26 -76 -30 -140 -11 -29 9 -41 9 -50 0 -18 -18 -42
-14 -65 11 -47 51 -52 75 -63 313 -5 126 -15 333 -21 460 -12 251 -12 250 43
401 31 87 50 102 69 59z m3709 -4920 l47 -44 -37 -43 -37 -43 -46 49 c-50 53
-57 78 -30 107 25 28 52 22 103 -26z m1840 19 c17 -20 6 -45 -38 -87 -50 -49
-71 -53 -113 -25 -55 37 -44 54 42 71 15 3 31 16 37 31 13 28 52 34 72 10z
m-6354 -230 c9 -14 14 -32 11 -40 -4 -8 -1 -28 5 -45 11 -34 -5 -90 -26 -90
-16 1 -41 22 -54 47 -13 23 -16 110 -6 137 10 25 51 19 70 -9z m6038 -160 c16
-20 27 -37 25 -38 -2 -2 -19 -15 -37 -30 -19 -15 -39 -27 -46 -27 -7 0 -25 27
-41 59 l-28 59 23 38 23 37 26 -31 c14 -18 39 -48 55 -67z m-17284 75 c94 6
95 6 98 -17 7 -46 -91 -99 -114 -62 -3 6 -17 8 -30 5 -33 -9 -64 10 -64 37 0
34 20 49 55 42 17 -3 41 -5 55 -5z m4878 -65 c23 -13 64 -42 91 -65 27 -23 61
-45 77 -49 42 -11 44 -44 4 -61 -27 -11 -33 -11 -53 8 -12 11 -53 32 -92 46
-74 27 -115 62 -115 100 0 23 17 46 35 46 5 0 29 -11 53 -25z m13622 -49 c16
-25 30 -47 30 -50 0 -3 -23 -6 -50 -6 -51 0 -51 0 -70 -45 -14 -33 -25 -45
-40 -45 -28 0 -70 44 -70 73 0 34 50 55 93 39 33 -12 47 -8 47 13 0 17 18 65
24 65 3 0 19 -20 36 -44z m-19036 -169 c12 -33 1 -46 -45 -56 -25 -5 -38 -16
-54 -46 -35 -70 -95 -48 -81 29 8 43 53 93 69 77 7 -7 19 -3 35 10 34 26 64
21 76 -14z m16272 7 c10 -14 39 -36 66 -50 43 -22 48 -28 42 -47 -9 -24 -8
-47 1 -93 l7 -31 -62 8 c-34 4 -64 9 -67 12 -3 3 7 22 22 41 l27 36 -76 47
c-41 27 -76 50 -76 54 0 5 79 47 92 48 4 1 15 -11 24 -25z m-4251 -4 c14 -15
26 -19 49 -14 46 8 69 -20 60 -75 -4 -22 -9 -41 -13 -41 -4 0 -23 13 -42 30
-30 24 -42 28 -72 23 -30 -5 -37 -2 -52 21 -37 56 26 105 70 56z m3802 -92 c6
-5 15 -24 18 -41 4 -18 18 -44 32 -59 14 -14 23 -34 21 -45 -4 -20 0 -20 -176
-5 l-93 7 35 34 c28 28 40 33 68 29 18 -3 41 -9 51 -13 15 -6 13 2 -12 47 -17
30 -31 58 -31 62 0 10 71 -3 87 -16z m-2171 -33 c13 -13 34 -30 45 -36 19 -10
21 -17 16 -60 -5 -43 -3 -52 15 -67 36 -29 58 -52 58 -59 0 -5 -10 -24 -21
-42 l-21 -35 -63 65 c-61 62 -63 67 -58 105 4 33 1 45 -21 71 -14 17 -26 43
-26 57 0 21 5 26 25 26 14 0 37 -11 51 -25z m1368 -34 c19 -33 19 -34 1 -47
-11 -8 -44 -14 -81 -14 -64 0 -74 -7 -74 -51 0 -27 -16 -23 -41 10 l-22 30
-16 -32 c-20 -40 -41 -44 -77 -14 -38 33 -27 52 53 89 173 78 225 84 257 29z
m2236 -175 c40 -55 74 -106 77 -113 3 -7 -10 -20 -32 -30 -37 -18 -37 -17 -56
6 -10 13 -19 34 -19 47 0 23 -1 23 -41 9 -71 -25 -110 17 -62 67 21 22 24 31
15 40 -20 20 -13 47 16 62 15 8 28 14 29 13 0 -1 34 -47 73 -101z m-993 12
c18 -13 33 -26 33 -30 0 -4 -13 -14 -30 -23 -28 -15 -34 -25 -31 -52 1 -6 -8
-18 -20 -27 -19 -13 -25 -13 -50 0 -16 8 -29 21 -29 30 0 21 28 85 47 106 21
24 40 23 80 -4z m-15313 -64 c3 -9 6 -28 6 -44 0 -50 17 -80 50 -86 58 -12 49
-94 -10 -94 -28 0 -33 6 -70 87 -53 113 -56 128 -33 142 26 15 50 13 57 -5z
m3287 -16 l43 -31 -39 -34 c-22 -19 -52 -43 -66 -54 -27 -19 -27 -19 -43 7
-13 19 -15 36 -10 70 12 81 45 93 115 42z m10822 -49 c6 -9 7 -42 3 -82 l-8
-67 -36 0 c-58 0 -60 5 -49 93 l10 78 35 -3 c19 -2 39 -10 45 -19z m346 -63
c18 -14 51 -28 72 -31 43 -7 68 -36 46 -53 -40 -31 -55 -32 -86 -7 -19 17 -47
28 -80 32 -56 6 -58 10 -36 53 19 36 41 38 84 6z m-15468 -167 c20 -20 21 -31
3 -91 -5 -15 1 -18 36 -18 l41 0 -6 -37 c-12 -69 -15 -74 -38 -67 -37 11 -47
25 -47 65 0 33 -3 39 -21 39 -58 0 -74 40 -39 98 23 37 42 40 71 11z m12554
-59 l50 -51 -25 -19 c-50 -38 -98 -54 -125 -42 -21 10 -25 18 -25 58 0 37 5
51 29 75 16 16 33 29 38 29 5 0 31 -23 58 -50z m-11828 -55 c43 -46 60 -83 49
-110 -15 -40 -68 -20 -80 31 -6 22 -12 24 -61 24 -53 0 -55 1 -55 27 0 37 36
73 73 73 23 0 41 -11 74 -45z m5671 -35 c35 -22 44 -63 16 -74 -25 -10 -62 -7
-70 5 -4 7 -11 2 -18 -12 -6 -13 -24 -30 -39 -39 -26 -14 -29 -14 -43 4 -22
30 -17 49 22 94 41 49 78 55 132 22z m10081 -175 c0 -29 -6 -58 -14 -69 -14
-19 -16 -18 -69 18 -30 21 -60 43 -65 50 -16 19 15 58 40 51 10 -3 28 -8 39
-11 11 -3 20 -1 20 4 0 5 8 27 17 48 l17 39 7 -40 c4 -22 8 -62 8 -90z m1200
111 c46 -24 55 -40 38 -72 -13 -26 -13 -32 6 -71 16 -34 19 -48 11 -61 -18
-28 -57 -21 -74 13 -9 17 -27 42 -42 57 -29 28 -29 35 3 116 15 36 19 38 58
18z m549 -102 c21 -14 26 -25 23 -53 -2 -10 3 -9 21 3 30 21 55 20 68 -3 15
-29 12 -49 -10 -71 -28 -28 -44 -25 -63 14 -14 31 -21 35 -59 38 l-43 3 -3 48
c-3 47 -2 48 20 42 13 -4 33 -13 46 -21z m-6488 -23 c39 -24 55 -28 87 -24 34
4 43 2 57 -18 22 -32 21 -35 -15 -48 -26 -9 -40 -7 -90 14 -32 14 -74 25 -94
25 -43 0 -54 20 -31 55 21 32 28 31 86 -4z m2234 -113 c-23 -75 -26 -77 -83
-57 -30 11 -34 9 -62 -22 l-29 -34 -25 28 c-14 15 -25 32 -25 36 0 19 37 36
114 52 114 24 119 24 110 -3z m2213 -40 c15 -24 35 -83 37 -107 0 -13 -6 -28
-15 -34 -19 -12 -69 -1 -69 15 0 6 -11 26 -25 44 -14 18 -25 39 -25 48 0 34
79 61 97 34z m-1767 -70 c0 -16 -37 -97 -51 -114 -8 -10 -17 -9 -44 2 -47 19
-49 19 -71 -21 -10 -19 -21 -35 -24 -35 -3 0 -14 12 -24 27 l-19 26 29 24 c16
12 34 21 41 19 6 -3 32 15 56 40 34 33 52 44 76 44 18 0 31 -5 31 -12z m-1916
-72 c39 -67 39 -69 20 -83 -13 -10 -31 -12 -58 -8 -52 8 -57 12 -47 38 7 17 3
30 -16 55 -24 32 -24 34 -7 53 34 37 64 22 108 -55z m-12150 -12 c9 -8 32 -44
52 -80 31 -56 35 -69 25 -90 -6 -13 -15 -24 -21 -24 -12 0 -170 90 -170 97 0
9 23 49 47 81 27 35 44 40 67 16z m15326 -100 c0 -1 -11 -39 -25 -83 -27 -83
-33 -89 -78 -72 -18 7 -27 22 -36 58 -7 26 -15 54 -17 61 -2 8 4 10 21 6 16
-4 38 2 66 19 35 21 69 27 69 11z m-361 -79 c30 -29 -12 -73 -84 -86 -55 -10
-143 23 -151 57 -12 48 9 57 121 49 60 -4 105 -12 114 -20z m1362 -5 c10 -6
19 -15 19 -19 0 -16 -83 -133 -98 -139 -22 -8 -52 34 -52 73 0 69 72 116 131
85z m-493 -74 l21 -45 -32 -7 c-35 -7 -47 -19 -47 -47 0 -13 7 -16 31 -15 24
2 36 -3 52 -24 21 -28 21 -28 1 -43 -10 -8 -29 -18 -42 -21 -30 -8 -65 22 -59
53 3 18 -1 22 -26 25 -16 2 -34 10 -40 19 -12 20 -1 69 15 69 7 0 29 18 49 40
20 22 41 40 46 40 5 0 19 -20 31 -44z m-10854 -68 c8 -13 16 -36 18 -52 3 -25
-2 -30 -32 -42 -54 -19 -146 -18 -154 3 -8 19 26 59 58 69 12 4 27 15 34 25
18 26 58 24 76 -3z m13167 -48 c23 -13 25 -56 3 -68 -14 -8 -12 -15 20 -49 20
-22 36 -43 36 -47 0 -4 -24 -6 -52 -4 l-53 3 -19 72 c-15 59 -16 76 -6 88 14
17 43 19 71 5z m-17 -208 c3 -5 10 -46 15 -92 8 -60 8 -87 0 -97 -16 -19 -79
-16 -113 6 l-29 19 42 27 c39 27 41 30 41 80 0 28 3 55 7 58 9 10 31 9 37 -1z
m-13564 -146 c21 -10 25 -17 22 -51 -3 -30 -12 -47 -43 -77 -43 -42 -47 -44
-73 -25 -16 11 -16 18 -7 54 8 28 8 49 1 68 -18 47 -14 54 33 48 23 -3 53 -11
67 -17z m-2005 -252 c9 -9 15 -26 13 -37 -3 -23 -113 -107 -138 -106 -8 0 -35
13 -60 28 -36 22 -46 34 -48 58 -4 42 24 51 71 23 40 -24 57 -19 101 25 29 29
39 31 61 9z m188 -46 c9 -7 17 -29 19 -47 l3 -35 36 32 37 32 17 -26 c9 -14
15 -27 13 -29 -16 -13 -60 -28 -116 -39 -100 -19 -136 2 -106 60 16 30 52 63
70 64 5 0 18 -6 27 -12z m13681 -230 c8 -33 14 -38 37 -38 15 0 35 7 43 16 15
14 20 13 56 -16 22 -17 40 -35 40 -38 -1 -21 -22 -30 -90 -40 -83 -12 -90 -9
-90 44 0 25 -5 33 -22 37 -40 10 -58 30 -52 55 5 19 12 23 38 20 27 -3 32 -8
40 -40z m-224 -204 c0 -18 -11 -27 -55 -43 -65 -25 -85 -26 -109 -8 -16 12
-17 18 -7 50 12 34 14 35 38 24 24 -10 28 -9 51 21 l25 33 29 -28 c15 -14 28
-37 28 -49z m-1250 -4 c10 -5 28 -23 40 -40 l21 -30 -27 -24 c-27 -23 -28 -24
-11 -49 26 -40 21 -47 -32 -47 l-49 0 -5 58 c-4 31 -9 72 -13 91 -9 46 28 67
76 41z m-438 -87 c44 -17 60 -55 36 -80 -13 -13 -22 -12 -74 2 -74 21 -104 40
-104 65 0 42 57 47 142 13z m3088 -269 c31 -6 55 -35 47 -57 -2 -7 2 -25 10
-40 18 -37 3 -57 -42 -57 -29 0 -34 4 -40 28 -4 20 -16 33 -38 43 -63 28 -59
108 5 95 15 -3 42 -9 58 -12z"/>
</g>
</svg>
