<svg xmlns="http://www.w3.org/2000/svg" width="40.097" height="15.626" viewBox="0 0 40.097 15.626">
  <g id="XMLID_526_" opacity="0.736">
    <path id="XMLID_527_" d="M10.865,160.2a.178.178,0,0,0,.168-.167l.46-3.643-.458-3.726a.171.171,0,0,0-.342,0l-.4,3.726.4,3.642A.181.181,0,0,0,10.865,160.2Z" transform="translate(-8.885 -145.531)" fill="#fff"/>
    <path id="XMLID_530_" d="M.464,167.827a.169.169,0,0,0,.163-.161L.983,165.4.627,163.1a.172.172,0,0,0-.163-.161A.173.173,0,0,0,.3,163.1L0,165.4l.3,2.263A.171.171,0,0,0,.464,167.827Z" transform="translate(0 -154.656)" fill="#fff"/>
    <path id="XMLID_531_" d="M22.75,147.349a.2.2,0,1,0-.409,0l-.384,4.419.384,4.258a.2.2,0,0,0,.409,0l.434-4.258Z" transform="translate(-18.958 -140.915)" fill="#fff"/>
    <path id="XMLID_532_" d="M34.343,155.415a.25.25,0,0,0,.24-.239l.41-4.392-.41-4.543a.249.249,0,0,0-.24-.239.245.245,0,0,0-.24.24l-.363,4.542.363,4.392A.246.246,0,0,0,34.343,155.415Z" transform="translate(-29.131 -139.929)" fill="#fff"/>
    <path id="XMLID_533_" d="M46.229,157.339a.284.284,0,0,0,.277-.275h0l.387-4.429-.387-4.215a.283.283,0,0,0-.275-.274.28.28,0,0,0-.275.275l-.342,4.214.342,4.428A.279.279,0,0,0,46.229,157.339Z" transform="translate(-39.382 -141.781)" fill="#fff"/>
    <path id="XMLID_534_" d="M58.882,135.724l-.363-6.853a.311.311,0,1,0-.622,0l-.321,6.853.321,4.428a.311.311,0,1,0,.622,0h0Z" transform="translate(-49.887 -124.868)" fill="#fff"/>
    <path id="XMLID_535_" d="M70.3,130.824a.359.359,0,0,0,.343-.358v0l.339-4.556-.339-8.716a.346.346,0,1,0-.691,0l-.3,8.716.3,4.555A.358.358,0,0,0,70.3,130.824Z" transform="translate(-60.353 -115.222)" fill="#fff"/>
    <path id="XMLID_536_" d="M82.483,111.435a.4.4,0,0,0-.381.395l-.278,9.427.278,4.5a.381.381,0,1,0,.761,0v0l.315-4.5-.315-9.427A.393.393,0,0,0,82.483,111.435Z" transform="translate(-70.897 -110.555)" fill="#fff"/>
    <path id="XMLID_782_" d="M94.739,124a.428.428,0,0,0,.415-.431v0l.291-4.469-.291-9.736a.428.428,0,0,0-.415-.431.423.423,0,0,0-.414.431l-.262,9.736.262,4.469A.422.422,0,0,0,94.739,124Z" transform="translate(-81.5 -108.396)" fill="#fff"/>
    <path id="XMLID_783_" d="M107.136,125.295a.465.465,0,0,0,.45-.468v0l.268-4.43-.268-9.493a.451.451,0,1,0-.9,0l-.236,9.493.237,4.428A.462.462,0,0,0,107.136,125.295Z" transform="translate(-92.232 -109.697)" fill="#fff"/>
    <path id="XMLID_784_" d="M120.313,122.291l-.243-9.153a.486.486,0,1,0-.971,0l-.218,9.151.218,4.4a.486.486,0,1,0,.971,0v0Z" transform="translate(-103.005 -111.59)" fill="#fff"/>
    <path id="XMLID_785_" d="M132.155,113.5a.493.493,0,0,0,.52-.444v0l.22-3.593-.22-8.948a.526.526,0,0,0-1.04,0l-.2,8.943.2,3.6A.494.494,0,0,0,132.155,113.5Z" transform="translate(-113.885 -97.885)" fill="#fff"/>
    <path id="XMLID_786_" d="M144.334,92.814a.529.529,0,0,0-.556.481l-.228,9.859.229,3.576a.56.56,0,0,0,1.108,0v0l.249-3.576-.249-9.859A.525.525,0,0,0,144.334,92.814Z" transform="translate(-124.38 -91.619)" fill="#fff"/>
    <path id="XMLID_787_" d="M157.374,99.681l13.97.007c2.784,0,5.041-1.981,5.041-4.426s-2.257-4.425-5.041-4.425a5.62,5.62,0,0,0-1.95.344c-.4-3.99-4.209-7.119-8.857-7.119a10.111,10.111,0,0,0-3.223.53c-.381.129-.483.262-.486.52V99.158A.569.569,0,0,0,157.374,99.681Z" transform="translate(-136.288 -84.062)" fill="#fff"/>
  </g>
</svg>
